<?xml version="1.0" encoding="utf-8"?>
<!-- Generator: Adobe Illustrator 18.0.0, SVG Export Plug-In . SVG Version: 6.00 Build 0)  -->
<!DOCTYPE svg PUBLIC "-//W3C//DTD SVG 1.1//EN" "http://www.w3.org/Graphics/SVG/1.1/DTD/svg11.dtd">
<svg version="1.1" id="圖層_1" xmlns="http://www.w3.org/2000/svg" xmlns:xlink="http://www.w3.org/1999/xlink" x="0px" y="0px"
	 width="152.1px" height="36px" viewBox="0 0 152.1 36" enable-background="new 0 0 152.1 36" xml:space="preserve">
<g>
	<g>
		<path fill="#FFFFFF" d="M19.1,5.6c0-0.6-0.5-1.1-1.1-1.1c-0.6,0-1.1,0.5-1.1,1.1l0,6.8c0,4.5-4.5,4.5-4.5,4.5V5.6
			C12.4,2.5,14.9,0,18,0s5.6,2.5,5.6,5.6H19.1z"/>
		<path fill="#FFFFFF" d="M18,11.3h11c0,0-0.1-4.5-4.5-4.5H18V11.3z"/>
	</g>
	<g>
		<path fill="#FFFFFF" d="M5.6,16.9c-0.6,0-1.1,0.5-1.1,1.1c0,0.6,0.5,1.1,1.1,1.1l6.8,0c4.5,0,4.5,4.5,4.5,4.5H5.6
			C2.5,23.7,0,21.2,0,18s2.5-5.6,5.6-5.6V16.9z"/>
		<path fill="#FFFFFF" d="M11.3,18V7c0,0-4.5,0.1-4.5,4.5V18H11.3z"/>
	</g>
	<g>
		<path fill="#FFFFFF" d="M30.4,19.2c0.6,0,1.1-0.5,1.1-1.1c0-0.6-0.5-1.1-1.1-1.1l-6.8,0c-4.5,0-4.5-4.5-4.5-4.5h11.3
			c3.1,0,5.6,2.5,5.6,5.6s-2.5,5.6-5.6,5.6V19.2z"/>
		<path fill="#FFFFFF" d="M24.8,18.1v11c0,0,4.5-0.1,4.5-4.5v-6.5H24.8z"/>
	</g>
	<g>
		<path fill="#FFFFFF" d="M16.9,30.4c0,0.6,0.5,1.1,1.1,1.1c0.6,0,1.1-0.5,1.1-1.1l0-6.8c0-4.5,4.5-4.5,4.5-4.5v11.3
			c0,3.1-2.5,5.6-5.6,5.6s-5.6-2.5-5.6-5.6H16.9z"/>
		<path fill="#FFFFFF" d="M18,24.8H7c0,0,0.1,4.5,4.5,4.5H18V24.8z"/>
	</g>
</g>
<path fill="#FFFFFF" d="M54.2,14.8H59c0.2-0.3,0.5-0.5,0.6-0.7c0.2-0.2,0.3-0.3,0.5-0.3c0.2,0,0.7,0.2,1.3,0.7c0.7,0.5,1,0.8,1,1
	c0,0.1-0.1,0.3-0.4,0.5c-0.3,0.2-0.4,0.3-0.5,0.5v2.1c0,0.2-0.2,0.3-0.6,0.5c0.4,0.3,0.8,0.5,1.2,0.8c0.5,0.3,0.7,0.5,0.7,0.7
	c0,0.2-0.1,0.3-0.3,0.3l-0.9-0.1c-0.5,0.2-1,0.5-1.8,0.7c0.1,0.1,0.1,0.1,0.2,0.1c0.9,0.4,1.6,0.8,2,1.3c0.3,0.4,0.5,0.8,0.5,1.2
	c0,0.3-0.1,0.5-0.3,0.7c-0.2,0.3-0.4,0.3-0.6,0.3c-0.3,0-1-0.5-1.9-1.6c-0.9-1-2.1-1.9-3.6-2.6l0.2-0.3c1.1,0.2,2,0.5,2.8,0.7
	c0.2-0.2,0.4-0.5,0.6-0.7c0.3-0.4,0.6-0.8,0.8-1.3C60.2,19,60.1,19,59.9,19c-0.4,0-0.6-0.1-0.6-0.5v-0.4h-1.8
	c-0.8,0.9-1.6,1.6-2.2,2v2.4c0.8-0.1,1.5-0.3,2.3-0.5l0.1,0.3c-1.4,1.2-3,2-4.6,2.4c-0.2,0.1-0.3,0.1-0.3,0.2
	c-0.1,0.1-0.1,0.1-0.1,0.2c0,0.1,0,0.1,0,0.1c1.2,0.1,2.7,0.1,4.8,0.1c1.9,0,4-0.1,6.3-0.4l0.1,0.4c-0.5,0.1-1,0.6-1.3,1.5
	c-0.1,0.4-0.2,0.6-0.3,0.6h-5.3c-1.2,0-2.8-0.1-4.7-0.2c-1.9-0.4-3.2-1.2-4-2.6c-0.1,0-0.1,0.1-0.2,0.2c-0.5,0.8-1,1.5-1.6,2.2
	c0,0.5-0.1,0.8-0.3,0.8c-0.1,0-0.3-0.2-0.4-0.5c-0.4-0.7-0.8-1.5-1.2-2.5c0.9-0.1,1.6-0.3,2.1-0.4v-5.4c-0.8,0-1.5,0.1-1.9,0.2
	l-0.3-1c0.5,0.2,1.2,0.3,1.8,0.3c0.3-0.2,0.5-0.5,0.7-0.7c0.3-0.3,0.5-0.5,0.7-0.5c0.2,0,0.6,0.3,1.1,0.7c0.6,0.5,0.9,0.8,0.9,0.9
	c0,0.2-0.1,0.4-0.4,0.5c-0.3,0.2-0.3,0.4-0.3,0.6v3.7c0.6,0.8,1.4,1.2,2.4,1.3c0.3,0.1,0.7,0.1,1.1,0.1c-0.2-0.2-0.4-0.6-0.5-1
	c-0.1-0.2-0.3-0.6-0.5-1.2c0.7-0.1,1.4-0.1,2.1-0.2v-1.7c-0.1,0.1-0.3,0.1-0.4,0.2c-0.9,0.3-1.9,0.7-3,0.9l-0.2-0.3
	c1-0.4,2-1,2.9-1.6c0.8-0.6,1.5-1.3,2.1-2.1h-0.9v0.3c0,0.3-0.3,0.5-1,0.6c-0.3,0.1-0.5,0.1-0.6,0.1c-0.5,0-0.7-0.2-0.7-0.6
	c0.1-0.4,0.1-0.8,0.1-1.3v-1.6c0-0.5-0.1-1-0.2-1.7C52.5,14.1,53.3,14.4,54.2,14.8z M48,13.9c0.5,0.3,0.8,0.7,0.8,1.1
	c0,0.4-0.2,0.8-0.5,1.1c-0.2,0.3-0.5,0.3-0.9,0.3c-0.3,0-0.6-0.3-0.9-0.8c-0.3-0.8-0.9-1.6-1.7-2.3L45,13
	C46.4,13.3,47.5,13.6,48,13.9z M48.8,10.1c0.5,0.3,0.7,0.6,0.7,1c0,0.4-0.2,0.8-0.5,1.1c-0.2,0.3-0.5,0.4-0.9,0.4
	c-0.3,0-0.6-0.3-0.8-0.8c-0.3-0.8-0.8-1.4-1.6-2.2l0.2-0.3C47.2,9.5,48.2,9.8,48.8,10.1z M53.8,10.6h1.5v-0.3c0-0.6-0.1-1.2-0.2-1.8
	c0.9,0.1,1.8,0.2,2.7,0.3c0.5,0.1,0.8,0.2,0.8,0.4c0,0.1-0.2,0.2-0.5,0.4c-0.3,0.2-0.5,0.4-0.5,0.6v0.4h1.2c0.1,0,0.3-0.2,0.6-0.7
	c0.5-0.5,0.7-0.8,0.8-0.8c0.2,0,0.5,0.3,1,0.8c0.5,0.5,0.7,0.8,0.7,1c0,0.2-0.1,0.3-0.3,0.3h-4V13h2.5c0.1,0,0.2-0.3,0.6-0.7
	c0.4-0.5,0.7-0.8,0.8-0.8c0.2,0,0.6,0.3,1.1,0.8c0.5,0.5,0.8,0.9,0.8,1c0,0.2-0.1,0.3-0.3,0.3h-9.8c-1.2,0-2.1,0.1-2.5,0.1l-0.3-0.8
	c0.7,0.1,1.6,0.1,2.9,0.1h2v-1.8h-1.5c-1.2,0-2.1,0.1-2.5,0.1L51,10.4C51.6,10.5,52.6,10.6,53.8,10.6z M59.4,17.5v-2.1H54v2.1H59.4z
	"/>
<path fill="#FFFFFF" d="M77.3,11.1h5c0-1-0.1-1.9-0.1-2.7c0.7,0.1,1.5,0.2,2.5,0.4c0.7,0.1,1.1,0.3,1.1,0.5c0,0.2-0.2,0.4-0.7,0.5
	c-0.3,0.1-0.5,0.3-0.5,0.5v0.8H89c0.1,0,0.3-0.3,0.8-0.9c0.5-0.7,0.8-1,0.9-1c0.3,0,0.7,0.3,1.3,1c0.6,0.6,0.9,1,0.9,1.2
	c0,0.2-0.1,0.3-0.4,0.3h-7.8v2.1h2.8c0.3-0.4,0.6-0.7,0.9-1c0.2-0.3,0.4-0.4,0.6-0.4s0.6,0.2,1.2,0.6c0.8,0.5,1.2,0.9,1.2,1
	c0,0.2-0.2,0.4-0.5,0.6c-0.2,0.2-0.3,0.4-0.3,0.6V18c0,0.7,0,1.6,0.1,2.7c0,0.3-0.4,0.5-1.1,0.6c-0.3,0.1-0.6,0.1-0.7,0.1
	c-0.4,0-0.6-0.2-0.6-0.7v-0.5H85c1.2,1.2,2.5,2,3.8,2.6c1.5,0.7,3,1.1,4.5,1.4l-0.1,0.5c-0.6,0.2-1,0.6-1.2,1.2
	c-0.1,0.5-0.3,0.7-0.5,0.7c-0.3,0-0.9-0.3-2-0.9c-1-0.6-2.1-1.4-3-2.4c-0.8-0.8-1.4-1.6-2-2.4v2.5c0,1.3,0,2.5,0.1,3.8
	c0,0.3-0.4,0.5-1.1,0.6c-0.3,0.1-0.5,0.1-0.7,0.1c-0.5,0-0.8-0.2-0.8-0.7c0.1-1.4,0.2-2.7,0.2-3.8V22c-0.5,0.6-1,1-1.4,1.4
	c-0.9,0.7-1.9,1.4-3.1,1.9c-1.2,0.5-2.4,1-3.8,1.4l-0.1-0.3c1.4-0.7,2.8-1.6,4.1-2.6c1.2-1,2.3-2.3,3.1-3.6h-2.2v0.6
	c0,0.3-0.3,0.5-1,0.6c-0.3,0.1-0.5,0.1-0.7,0.1c-0.5,0-0.7-0.2-0.7-0.7c0.1-0.8,0.1-1.5,0.1-2.3v-2.7c0-1-0.1-2.1-0.1-3.1
	c1,0.3,2,0.6,3,1h3v-2.1h-5c-1.2,0-2.1,0.1-2.5,0.1l-0.3-0.8C75.1,11,76,11.1,77.3,11.1z M82.4,16.7v-2.3h-3.5v2.3H82.4z M82.4,19.6
	v-2.3h-3.5v2.3H82.4z M84.7,16.7h3.6v-2.3h-3.6V16.7z M84.7,19.6h3.6v-2.3h-3.6V19.6z"/>
<path fill="#FFFFFF" d="M114.2,8.8c0.5,0.1,0.8,0.2,0.8,0.4c0,0.1-0.2,0.2-0.5,0.3c-0.3,0.1-0.5,0.3-0.5,0.5V11h4.6
	c0.1,0,0.3-0.3,0.7-0.9c0.5-0.7,0.8-1,0.9-1c0.3,0,0.7,0.3,1.3,1c0.6,0.6,0.9,1,0.9,1.2c0,0.2-0.1,0.3-0.4,0.3h-5.9
	c0.2,0.1,0.5,0.1,0.7,0.2c0.6,0.2,0.9,0.3,0.9,0.5c0,0.2-0.2,0.3-0.5,0.4c-0.3,0.1-0.5,0.1-0.6,0.2c-0.3,0.5-0.5,1-0.9,1.4
	c-0.2,0.2-0.4,0.4-0.6,0.6h3.2c0.2-0.2,0.3-0.3,0.5-0.5c0.4-0.3,0.7-0.5,0.8-0.5c0.2,0,0.7,0.3,1.3,0.7c0.6,0.5,1,0.8,1,1
	c0,0.2-0.2,0.3-0.5,0.6c-0.4,0.3-0.6,0.5-0.6,0.8v8.6c0,0.7-0.4,1.2-1.2,1.6c-0.7,0.3-1.2,0.5-1.6,0.5c-0.2,0-0.3-0.3-0.4-0.8
	c-0.2-0.6-0.8-1.2-1.9-1.6l0-0.1c-0.3,0.1-0.5,0.1-0.6,0.1c-0.4,0-0.6-0.2-0.6-0.6v-0.3h-3.7v0.8c0,0.3-0.3,0.5-1,0.6
	c-0.3,0.1-0.5,0.1-0.6,0.1c-0.5,0-0.7-0.2-0.7-0.7c0.1-0.7,0.1-1.3,0.1-2v-1c0-0.8-0.1-1.6-0.1-2.4c-0.3,0.1-0.7,0.2-1,0.3l-0.3-0.2
	c0.4-0.2,0.8-0.4,1.1-0.8c0.3-0.3,0.6-0.6,0.8-0.9c0.2-0.5,0.3-1,0.3-1.7v-0.9H107v11.7c0,0.3-0.3,0.5-1,0.6
	c-0.3,0.1-0.5,0.1-0.6,0.1c-0.5,0-0.8-0.2-0.8-0.7c0.1-1.5,0.2-2.8,0.2-4v-5.6c0-1-0.1-2.2-0.2-3.6c0.9,0.2,1.8,0.5,2.5,0.9h2.5
	c-0.1-0.3-0.2-0.6-0.4-1.1c-0.3-0.8-0.6-1.5-1-2.1l0.1-0.1H106c-1.2,0-2.1,0.1-2.5,0.1l-0.3-0.8c0.7,0.1,1.6,0.2,2.9,0.2h5.6v-0.8
	c0-0.6-0.1-1.2-0.2-1.8C112.5,8.5,113.4,8.7,114.2,8.8z M113.9,20.2c0.3-0.3,0.6-0.5,0.8-0.8c0.2-0.2,0.4-0.3,0.6-0.3
	c0.2,0,0.5,0.2,1.2,0.6c0.7,0.5,1,0.8,1,1s-0.1,0.4-0.4,0.5c-0.2,0.2-0.3,0.4-0.3,0.6v0.3c0,0.6,0,1.4,0.1,2.4
	c0,0.1-0.1,0.3-0.2,0.3c0.6,0.1,1.1,0.1,1.5,0.1c0.4,0,0.6-0.2,0.6-0.7v-5.7c-0.5,0.2-1.1,0.3-2,0.3h-1c-0.4,0-0.7,0-1-0.1
	c-0.6-0.1-0.9-0.5-0.9-1v-2.4h-2.1v0.9c0,0.7-0.2,1.3-0.5,1.8c-0.3,0.4-0.8,0.8-1.4,1c-0.2,0.1-0.4,0.2-0.6,0.3
	c0.7,0.2,1.3,0.5,2,0.8L113.9,20.2L113.9,20.2L113.9,20.2z M114.4,14.9c0.2-0.5,0.3-1.1,0.4-1.6c0.1-0.5,0.2-1.1,0.2-1.8h-5.3
	c0.2,0.1,0.3,0.2,0.5,0.3c0.4,0.3,0.7,0.5,0.9,0.8c0.2,0.3,0.3,0.5,0.3,0.8c0,0.4-0.2,0.8-0.5,1.1c-0.1,0.1-0.2,0.3-0.3,0.3H114.4z
	 M114.7,23.8v-3h-3.7v3L114.7,23.8L114.7,23.8z M115.6,16.8c0,0.3,0.1,0.5,0.3,0.6c0.2,0.1,0.5,0.1,0.8,0.1c0.3,0,0.5-0.1,0.6-0.2
	c0.1-0.2,0.1-0.6,0.3-1.4h0.3l0.1,1c0,0.2,0.2,0.3,0.6,0.5c0.1,0,0.1,0.1,0.1,0.1v-1.9h-3.1L115.6,16.8L115.6,16.8L115.6,16.8z"/>
<path fill="#FFFFFF" d="M138.2,8.9c0.7,0.2,1,0.4,1,0.5c0,0.2-0.2,0.3-0.6,0.3c-0.3,0.1-0.5,0.1-0.6,0.2c1.2,0.3,2.1,0.7,2.7,1.1
	c0.6,0.5,0.9,1,0.9,1.7c0,0.3-0.1,0.5-0.3,0.8c-0.2,0.2-0.3,0.2-0.6,0.2c-0.5,0-1-0.3-1.4-1c-0.3-0.7-0.9-1.4-1.7-2.1
	c-0.5,0.9-1.1,1.6-1.7,2.2c-0.4,0.5-0.9,0.9-1.4,1.3c0.6,0.1,1.4,0.1,2.3,0.1h0.9c0,0,0.2-0.2,0.5-0.6c0.3-0.5,0.6-0.7,0.7-0.7
	c0.2,0,0.5,0.2,0.9,0.7c0.4,0.5,0.6,0.7,0.6,0.8c0,0.2-0.1,0.3-0.2,0.3h-2.3v2.8h0.6c0.1,0,0.2-0.2,0.5-0.6c0.3-0.5,0.5-0.7,0.6-0.7
	c0.2,0,0.5,0.2,0.9,0.7c0.4,0.5,0.7,0.7,0.7,0.8c0,0.2-0.1,0.3-0.3,0.3h-3.1v5.5c1.1-0.2,2.1-0.4,3.2-0.7l0.2,0.3
	c-2,1.5-4.1,2.6-6.4,3.3c-0.3,0-0.3,0.1-0.3,0.3c-0.1,0.1-0.1,0.2-0.1,0.3c-0.1,0.2-0.1,0.3-0.2,0.3c-0.3,0-0.7-0.5-1.1-1.6
	c-0.1-0.3-0.3-0.8-0.6-1.4c1.1-0.1,2.2-0.2,3.3-0.4v-5.9h-0.3c-1.2,0-2.1,0.1-2.5,0.1l-0.3-0.8c0.7,0.1,1.6,0.2,2.9,0.2h0.3v-2.8
	c-0.7,0-1.2,0.1-1.6,0.1l-0.2-0.4c-0.5,0.3-1,0.7-1.5,1l-0.1-0.3c0.6-0.7,1.4-1.7,2.1-2.9c0.6-1,1.2-2.3,1.6-3.8
	C137,8.6,137.6,8.8,138.2,8.9z M135,20.7c0.3,0.5,0.5,1,0.5,1.5c0,0.5-0.1,0.9-0.3,1c-0.3,0.3-0.6,0.5-0.9,0.5
	c-0.2,0-0.4-0.1-0.5-0.3c-0.1-0.1-0.2-0.6-0.2-1.3c0-0.8-0.1-1.7-0.3-2.8l0.2-0.1C134.2,19.6,134.7,20.1,135,20.7z M140.8,19.4
	c0.5,0.2,0.8,0.5,0.8,0.7c0,0.1-0.1,0.2-0.4,0.2c-0.3,0.1-0.5,0.1-0.5,0.1c-0.6,1-1.3,1.9-2.1,2.7l-0.3-0.3c0.3-1.2,0.5-2.6,0.7-4
	C139.6,19,140.2,19.2,140.8,19.4z M144.3,9.9h3.1c0.3-0.3,0.6-0.7,0.9-1c0.2-0.2,0.4-0.3,0.6-0.3c0.2,0,0.6,0.2,1.2,0.6
	c0.7,0.5,1.1,0.9,1.1,1c0,0.2-0.2,0.4-0.5,0.6c-0.3,0.2-0.3,0.4-0.3,0.6v3.8c0,0.7,0,1.6,0.1,2.7c0,0.3-0.3,0.4-0.9,0.5
	c0.5,0.3,1,0.7,1.5,1c0.5,0.4,0.8,0.7,0.8,0.9c0,0.2-0.1,0.3-0.3,0.3l-1.2-0.2c-0.6,0.5-1.4,0.9-2.5,1.4c0.1,0.2,0.2,0.3,0.3,0.4
	c0.4,0.6,0.9,1.1,1.6,1.5c0.6,0.4,1.3,0.8,2.3,1.1l-0.1,0.5c-0.6,0.1-1.1,0.5-1.4,1.2c-0.2,0.5-0.4,0.8-0.5,0.8s-0.5-0.2-0.9-0.7
	c-0.5-0.5-1-1.2-1.4-2.1c-0.1-0.2-0.2-0.4-0.3-0.6c-1.6,1.2-3.2,2-4.9,2.6c-0.2,0.1-0.3,0.1-0.3,0.3c-0.1,0.1-0.1,0.2-0.1,0.3
	c-0.1,0.2-0.1,0.3-0.3,0.3c-0.3,0-0.7-0.5-1.1-1.6c-0.1-0.3-0.3-0.8-0.6-1.4c0.6-0.1,1.2-0.1,1.7-0.2V13.1c0-1.8-0.1-3.1-0.3-4
	C142.4,9.2,143.3,9.5,144.3,9.9z M148.1,13.5v-3h-3.9v3C144.2,13.5,148.1,13.5,148.1,13.5z M148.1,17.1v-3.1h-3.9v3.1H148.1z
	 M146.5,21.7c-0.3-1-0.5-2.3-0.7-4h-1.6v6.4c1-0.2,2-0.4,2.8-0.6C146.8,22.9,146.6,22.3,146.5,21.7z M147,19.9
	c0.2,0.6,0.5,1.2,0.7,1.6c0.2-0.3,0.4-0.6,0.6-1c0.3-0.6,0.6-1.2,0.8-1.9c-0.2,0.1-0.4,0.1-0.5,0.1c-0.4,0-0.6-0.2-0.6-0.7v-0.3
	h-1.7C146.5,18.3,146.7,19.1,147,19.9z"/>
</svg>
