<?xml version="1.0" encoding="utf-8"?>
<!-- Generator: Adobe Illustrator 18.0.0, SVG Export Plug-In . SVG Version: 6.00 Build 0)  -->
<!DOCTYPE svg PUBLIC "-//W3C//DTD SVG 1.1//EN" "http://www.w3.org/Graphics/SVG/1.1/DTD/svg11.dtd">
<svg version="1.1" id="Layer_6" xmlns="http://www.w3.org/2000/svg" xmlns:xlink="http://www.w3.org/1999/xlink" x="0px" y="0px"
	 width="62.9px" height="65px" viewBox="0 0 62.9 65" style="enable-background:new 0 0 62.9 65;" xml:space="preserve">
<style type="text/css">
	.st0{fill:#FFFFFF;}
	.st1{fill:#FF6E5F;}
</style>
<g>
	<g>
		<g>
			<g>
				<g>
					<path class="st0" d="M57.5,19.1L43.7,36.4l-10.1-2.1v8l-4.3-3L22,50.5l-8.8-11.3L6.3,59.8h51.3V19.1z"/>
				</g>
			</g>
		</g>
	</g>
	<g>
		<path class="st0" d="M11,22.7c-3.9,0-7.1,3.2-7.1,7.1c0,3.9,3.2,7.1,7.1,7.1c3.9,0,7.1-3.2,7.1-7.1C18.1,25.9,14.9,22.7,11,22.7z
			 M11,35.3c-3,0-5.4-2.4-5.4-5.4c0-3,2.4-5.4,5.4-5.4c3,0,5.4,2.4,5.4,5.4C16.4,32.8,14,35.3,11,35.3z"/>
		<path class="st0" d="M11.5,29.2c-0.8-0.3-1.2-0.5-1.2-0.8c0-0.3,0.2-0.5,0.8-0.5c0.7,0,1.1,0.2,1.4,0.3l0.3-1.1
			c-0.3-0.2-0.8-0.3-1.4-0.3V26h-0.9v0.9c-1,0.2-1.6,0.8-1.6,1.7c0,0.9,0.7,1.4,1.7,1.7c0.7,0.2,1,0.5,1,0.8c0,0.4-0.4,0.6-0.9,0.6
			c-0.6,0-1.2-0.2-1.6-0.4l-0.3,1.1c0.4,0.2,1,0.4,1.6,0.4v0.9h0.9v-1c1.1-0.2,1.7-0.9,1.7-1.8C13,30.1,12.6,29.6,11.5,29.2z"/>
	</g>
	<g>
		<path class="st0" d="M51.4,0c-3.9,0-7.1,3.2-7.1,7.1c0,3.9,3.2,7.1,7.1,7.1c3.9,0,7.1-3.2,7.1-7.1C58.5,3.2,55.3,0,51.4,0z
			 M51.4,12.5c-3,0-5.4-2.4-5.4-5.4c0-3,2.4-5.4,5.4-5.4c3,0,5.4,2.4,5.4,5.4C56.8,10.1,54.3,12.5,51.4,12.5z"/>
		<path class="st0" d="M52.3,3.6c-1.7,0-3.1,1.2-3.5,2.7h-0.6v0.8h0.5c0,0,0,0,0,0.1c0,0.1,0,0.2,0,0.3h-0.5v0.8h0.7
			c0.5,1.5,1.8,2.5,3.5,2.5c0.2,0,0.5,0,0.7-0.1l0.2,0V9.2l-0.3,0.1c-0.2,0.1-0.4,0.1-0.6,0.1c-0.9,0-1.6-0.5-2-1.2h0.9V7.5h-1.1
			c0-0.1,0-0.2,0-0.3c0,0,0,0,0-0.1h1.2V6.3h-1c0.3-0.8,1.2-1.4,2.1-1.4c0.2,0,0.4,0,0.6,0.1l0.3,0.1V3.7l-0.2,0
			C52.8,3.6,52.6,3.6,52.3,3.6z"/>
	</g>
	<g>
		<path class="st0" d="M33.8,18.8c-3.9,0-7.1,3.2-7.1,7.1c0,3.9,3.2,7.1,7.1,7.1c3.9,0,7.1-3.2,7.1-7.1C40.9,22,37.7,18.8,33.8,18.8
			z M33.8,31.4c-3,0-5.4-2.4-5.4-5.4c0-3,2.4-5.4,5.4-5.4c3,0,5.4,2.4,5.4,5.4C39.2,28.9,36.8,31.4,33.8,31.4z"/>
		<path class="st0" d="M35.2,22.7l-0.7,1.8c-0.2,0.5-0.4,1-0.6,1.4h0c-0.2-0.5-0.3-0.9-0.6-1.4l-0.7-1.8h-1.9l2.1,3.9h-1.1v0.8h1.3
			v0.4h-1.3v0.8h1.3v1.4h1.7v-1.4h1.1v-0.8h-1.1v-0.4h1.1v-0.8h-0.8l2.2-3.9H35.2z"/>
	</g>
	<path class="st0" d="M62.9,17c0-1.5-1.2-2.8-2.7-2.8c-1.5,0-2.7,1.2-2.7,2.8c0,1.3,0.8,2.3,2,2.6v42h-54c-0.3-1.2-1.4-2.2-2.7-2.2
		c-1.5,0-2.7,1.2-2.7,2.8C0,63.8,1.2,65,2.7,65c1.1,0,2.1-0.7,2.5-1.7h55.8V19.6C62.1,19.2,62.9,18.2,62.9,17z"/>
</g>
<polygon class="st1" points="56,30.8 46.6,42.4 37.9,40.6 37.9,50.3 32,46.1 24.5,57.4 23.7,57.4 16,47.6 12.7,57.4 10.3,57.4 
	14.8,44.1 23,54.6 30.8,42.6 36.8,46.8 36.8,37.1 45.5,39 56,25.8 "/>
</svg>
