<?xml version="1.0" encoding="utf-8"?>
<!-- Generator: Adobe Illustrator 18.0.0, SVG Export Plug-In . SVG Version: 6.00 Build 0)  -->
<!DOCTYPE svg PUBLIC "-//W3C//DTD SVG 1.1//EN" "http://www.w3.org/Graphics/SVG/1.1/DTD/svg11.dtd">
<svg version="1.1" id="Layer_3" xmlns="http://www.w3.org/2000/svg" xmlns:xlink="http://www.w3.org/1999/xlink" x="0px" y="0px"
	 width="40.2px" height="42.7px" viewBox="0 0 40.2 42.7" style="enable-background:new 0 0 40.2 42.7;" xml:space="preserve">
<style type="text/css">
	.st0{fill:#FF6E5F;}
</style>
<g transform="translate(0,-952.36218)">
	<path class="st0" d="M7,955.6c0,1.4,0.5,2.8,1.5,3.8H0v7h15.1v-5h2v5h6v-5h2v5h15.1v-7h-8.5c1-0.9,1.5-2.4,1.5-3.8
		c0-2.1-2-3.7-5-3.2c-2.2,0.5-3.7,3.9-6.1,6.9c-0.2-1.2-0.8-2.4-1.9-2.4c-1.2,0-1.7,1.2-1.9,2.4c-2.4-3-3.9-6.4-6.1-6.9
		C9.7,952.1,7,952.9,7,955.6z M2.5,967.4V995h12.5v-27.6H2.5z M17.1,967.4V995h6v-27.6H17.1z M25.1,967.4V995h12.5v-27.6H25.1z"/>
</g>
</svg>
