<?xml version="1.0" encoding="utf-8"?>
<!-- Generator: Adobe Illustrator 18.0.0, SVG Export Plug-In . SVG Version: 6.00 Build 0)  -->
<!DOCTYPE svg PUBLIC "-//W3C//DTD SVG 1.1//EN" "http://www.w3.org/Graphics/SVG/1.1/DTD/svg11.dtd">
<svg version="1.1" id="Layer_1" xmlns="http://www.w3.org/2000/svg" xmlns:xlink="http://www.w3.org/1999/xlink" x="0px" y="0px"
	 width="45.9px" height="43.1px" viewBox="0 0 45.9 43.1" style="enable-background:new 0 0 45.9 43.1;" xml:space="preserve">
<style type="text/css">
	.st0{clip-path:url(#SVGID_2_);fill:#FF6E5F;}
</style>
<g>
	<defs>
		<rect id="SVGID_1_" y="0" width="45.9" height="43.1"/>
	</defs>
	<clipPath id="SVGID_2_">
		<use xlink:href="#SVGID_1_"  style="overflow:visible;"/>
	</clipPath>
	<path class="st0" d="M44.2,38.5c-2-1.4-3-1.6-5-0.8c-2.8,1.1-4.8,0.8-8.4,3.6c-3.1,2.4-4.8,2.1-7.7,0.8c-2.7-1.3-4.7-1.5-7.5-2.4
		c-2.6-0.8-4.1-2.4-6-3.9c-3.2-2.4-4.5-3.8-7.6-4.7c-5.1-1.5,0.5-4.5,7.2-1.4c1.7,0.5,3.5,0.8,5.1,1.5c4.5,2.1,7.6,0.9,11.2-0.3
		c1.5-0.5,2.5-1.5-0.3-1.1c-3.1,0.5-5.8,0.7-9.2-1.1C14,27.5,13.2,26,13.3,25c0-1.1,1-1.5,2.7-0.6c0.1,0,0.1,0.1,0.2,0.1
		c2.3,1.4,6.7,0.9,8.3,0.3c4.5-1.7,6.5-0.9,9.4-2c3.7-1.3,6.4-0.6,7.8,1.5c0.4,0.5,2.1,2.2,4.1,2.8C46.5,27.4,45.3,39.4,44.2,38.5"
		/>
	<path class="st0" d="M33.5,21.1c-3.2,1.3-6,0.6-7.7,1.5c-2.4,1.3-5.2,1.4-6.1,1.4c-2.5-0.1-5.6-3.1-7.4-0.4c-1.2,1.9-0.1,4.4,3,6.4
		c-5.3-1.1-6.5-2.7-10.1-2.9C14.1,17,21.1,13.7,33.5,21.1"/>
	<path class="st0" d="M16.6,10.1c1.2,1,2.1,4.1,2.4,6.4c0.5-0.1,1-0.2,1.6-0.2c0.3-1.9,1.2-3.6,1.9-4.5c8,2.8,7.3-5.5,9.9-10.8
		c-5.4,2.7-14.8-0.2-11.6,9.7c2.3-3.9,4.7-5.7,10.1-8.3c-5.2,2.9-9.3,7.1-10.9,12c-0.5-2.2-1.2-3.5-2-5c1.7-8.5-2.6-9.7-12.2-9.3
		C9.3,4.4,5.6,11.4,16.6,10.1"/>
</g>
</svg>
