<?xml version="1.0" encoding="utf-8"?>
<!-- Generator: Adobe Illustrator 18.0.0, SVG Export Plug-In . SVG Version: 6.00 Build 0)  -->
<!DOCTYPE svg PUBLIC "-//W3C//DTD SVG 1.1//EN" "http://www.w3.org/Graphics/SVG/1.1/DTD/svg11.dtd">
<svg version="1.1" id="Layer_1" xmlns="http://www.w3.org/2000/svg" xmlns:xlink="http://www.w3.org/1999/xlink" x="0px" y="0px"
	 width="53.5px" height="41px" viewBox="0 0 53.5 41" style="enable-background:new 0 0 53.5 41;" xml:space="preserve">
<style type="text/css">
	.st0{fill:#FF6E5F;}
</style>
<path class="st0" d="M10.8,31.9c-3.3-1.5-6.3-3.4-9-5.8c-1.1-1-1.7-2.4-1.7-3.9v-5.4c0-2.3,1.9-4.2,4.2-4.2h1.2c1-0.9,1.8-2,2.5-3.1
	l0.2-0.2C7.8,8.3,7.3,7.4,6.6,6.7c-1-1-1.1-2.6-0.3-3.8c0.6-0.8,1.4-1.3,2.4-1.3c0.4,0,0.7,0,1,0c1.8,0,3.6,0.4,5.3,1.3
	C18.4,1,22.2,0,26.1,0c6.5,0,12.7,2.7,16.5,7.3c0.4,0.7,0.2,1.5-0.5,1.9c-0.5,0.3-1.1,0.3-1.6-0.1c-3.4-4-8.8-6.3-14.5-6.3
	c-3.5,0-7,0.9-10.1,2.7c-0.6,0.3-1.3,0.3-1.9,0c-1.6-0.9-3.4-1.3-5.2-1.1c-0.1,0-0.2,0-0.3,0.1c-0.1,0.1-0.1,0.2,0,0.3
	c1.2,1.2,2.1,2.8,2.3,4.5c0,0.3,0,0.7-0.2,0.9c-0.1,0.2-0.3,0.4-0.4,0.6c-0.9,1.5-2.1,2.9-3.4,4.1c-0.3,0.2-0.6,0.4-0.9,0.4H4.2
	c-0.8,0-1.4,0.6-1.4,1.4c0,0,0,0,0,0v5.4c0,0.7,0.3,1.4,0.8,1.9c2.5,2.2,5.4,4,8.5,5.4c0.6,0.3,1.1,0.8,1.3,1.5l2.1,6.8
	c0.1,0.2,0.3,0.4,0.5,0.4h2.8c0.2,0,0.4-0.2,0.5-0.4l1-3.4c0.2-0.7,1-1.2,1.7-0.9c0.7,0.2,1.2,1,0.9,1.7c0,0,0,0,0,0l-1,3.4
	c-0.4,1.4-1.7,2.4-3.2,2.4h-2.8c-1.5,0-2.7-1-3.2-2.3L10.8,31.9z M30.9,35.6c0.7,0,1.3-0.6,1.3-1.4v-6.4l1,1c0.5,0.5,1.4,0.5,2,0
	s0.5-1.4,0-2l-3.3-3.3c-0.5-0.5-1.4-0.5-2,0c0,0,0,0,0,0l-3.3,3.3c-0.5,0.5-0.5,1.4,0,2c0.5,0.5,1.4,0.5,2,0l1-1v6.4
	C29.5,35,30.1,35.6,30.9,35.6C30.9,35.6,30.9,35.6,30.9,35.6L30.9,35.6z M39.7,35.6c0.8,0,1.4-0.6,1.4-1.4V22l1.1,1.1
	c0.5,0.5,1.4,0.5,2,0c0.5-0.5,0.5-1.4,0-2l-3.5-3.5c-0.5-0.5-1.4-0.5-2,0c0,0,0,0,0,0l-3.4,3.4c-0.5,0.5-0.5,1.4,0,2
	c0.5,0.5,1.4,0.5,2,0l1.1-1.1v12.3C38.3,35,38.9,35.6,39.7,35.6L39.7,35.6z M47.4,11.4l-3.5,3.5c-0.5,0.5-0.5,1.4,0,2
	c0.5,0.5,1.4,0.5,2,0l1.1-1.1v18.6c0,0.8,0.6,1.4,1.4,1.4s1.4-0.6,1.4-1.4V15.7l1.1,1.1c0.5,0.5,1.4,0.5,2,0c0.5-0.5,0.5-1.4,0-2
	l-3.5-3.5C48.8,10.9,48,10.9,47.4,11.4C47.4,11.4,47.4,11.4,47.4,11.4z M12,14.2c0,0.8,0.6,1.4,1.4,1.4s1.4-0.6,1.4-1.4
	c0-0.8-0.6-1.4-1.4-1.4S12,13.5,12,14.2L12,14.2z M52.1,38.2h-25c-0.8,0-1.4,0.6-1.4,1.4s0.6,1.4,1.4,1.4h25c0.8,0,1.4-0.6,1.4-1.4
	S52.9,38.2,52.1,38.2z"/>
</svg>
