<?xml version="1.0" encoding="utf-8"?>
<!-- Generator: Adobe Illustrator 18.0.0, SVG Export Plug-In . SVG Version: 6.00 Build 0)  -->
<!DOCTYPE svg PUBLIC "-//W3C//DTD SVG 1.1//EN" "http://www.w3.org/Graphics/SVG/1.1/DTD/svg11.dtd">
<svg version="1.1" id="Layer_1" xmlns="http://www.w3.org/2000/svg" xmlns:xlink="http://www.w3.org/1999/xlink" x="0px" y="0px"
	 width="42.8px" height="42.4px" viewBox="0 0 42.8 42.4" style="enable-background:new 0 0 42.8 42.4;" xml:space="preserve">
<style type="text/css">
	.st0{clip-path:url(#SVGID_2_);fill:#FF6E5F;}
</style>
<g>
	<defs>
		<rect id="SVGID_1_" width="42.8" height="42.4"/>
	</defs>
	<clipPath id="SVGID_2_">
		<use xlink:href="#SVGID_1_"  style="overflow:visible;"/>
	</clipPath>
	<path class="st0" d="M27.9,15.9c0.8-0.5,2.1-0.5,2.9,0c0.8,0.5,0.8,1.2,0,1.7c-0.8,0.5-2.1,0.5-2.9,0C27,17.2,27,16.4,27.9,15.9
		 M12.3,8.7c0.8,0.5,2.2,0.5,2.9,0c0.8-0.5,0.8-1.2,0-1.7c-0.8-0.5-2.2-0.5-2.9,0C11.5,7.4,11.6,8.2,12.3,8.7 M1.3,7.8l12.4-7.2
		c1.3-0.8,3.5-0.8,4.8,0L41.8,14c1.4,0.8,1.4,2,0,2.8L29.4,24c-1.3,0.8-3.5,0.8-4.8,0L1.3,10.6C0,9.9,0,8.6,1.3,7.8 M6.4,10.6
		c-0.2,0.1-0.3,0.2-0.5,0.2l18,10.4c0.1,0,0.2-0.1,0.3-0.2c1.4-0.8,3.6-0.8,4.9,0c0.2,0.1,0.4,0.3,0.5,0.4l7.5-4.4
		c-0.3-0.1-0.5-0.2-0.7-0.3c-1.4-0.8-1.4-2.1,0-2.9c0.2-0.1,0.4-0.2,0.7-0.3L19,3.2c-0.1,0.1-0.3,0.2-0.4,0.3
		c-1.4,0.8-3.6,0.8-4.9,0l-0.4-0.3L5.9,7.6c0.2,0.1,0.3,0.1,0.5,0.2C7.7,8.6,7.7,9.9,6.4,10.6 M16.3,9.2c2.9-1.7,7.7-1.7,10.6,0
		c2.9,1.7,2.9,4.4,0,6.2c-2.9,1.7-7.7,1.7-10.6,0C13.3,13.7,13.3,10.9,16.3,9.2 M22.3,11.4l-1.4-0.8c-0.4,0.2-0.8,0.4-1.2,0.6
		c-0.4,0.2-0.7,0.5-1,0.7l1.4,0.8L22.3,11.4z M20.9,13.2l1.4,0.8c0.4-0.2,0.8-0.4,1.2-0.6c0.4-0.2,0.7-0.5,1-0.7l-1.4-0.8L20.9,13.2
		z M18.1,12.5c-0.6,0.7-0.7,1.3-0.7,1.8l1.8-1.1L18.1,12.5z M18.2,14.7c0.8,0,1.9-0.1,3.1-0.4l-1.2-0.7L18.2,14.7z M23.2,15.4
		l-1.1-0.6c-0.9,0.3-1.8,0.4-2.5,0.5C20.7,15.6,22,15.6,23.2,15.4 M26.5,13.9l-1.2-0.7c-0.3,0.2-0.6,0.5-1,0.7
		c-0.4,0.2-0.8,0.4-1.2,0.6l1.2,0.7c0.5-0.1,0.9-0.3,1.3-0.6C25.9,14.4,26.2,14.1,26.5,13.9 M25.9,12.6l1.1,0.6
		c0.4-0.7,0.3-1.4-0.2-2.1C26.6,11.5,26.4,12.1,25.9,12.6 M25.7,10.3l-1.8,1.1l1.2,0.7C25.6,11.4,25.7,10.8,25.7,10.3 M25,9.9
		c-0.8,0-1.9,0.1-3.1,0.4l1.2,0.7L25,9.9z M20,9.2L21,9.8c0.9-0.3,1.8-0.4,2.5-0.5C22.5,9,21.2,9,20,9.2 M16.7,10.7l1.2,0.7
		c0.3-0.2,0.6-0.5,1-0.7c0.4-0.2,0.8-0.4,1.2-0.6l-1.2-0.7C18.5,9.6,18,9.8,17.6,10C17.2,10.2,16.9,10.5,16.7,10.7 M16.4,13.5
		c0.1-0.4,0.4-1,0.9-1.5l-1.1-0.6C15.9,12.1,15.9,12.9,16.4,13.5"/>
	<path class="st0" d="M0.6,14.2l24.3,14l0.4,0.2l0.5,0.3c0.7,0.4,1.8,0.4,2.5,0l13.9-8.1c0.6-0.4,0.6-0.9,0-1.2
		c-0.6-0.4-1.5-0.3-2.1,0l-13.1,7.6l-24.3-14c-0.6-0.3-1.5-0.4-2.1-0.1C0,13.3,0,13.9,0.6,14.2"/>
	<path class="st0" d="M0.5,18.9l24.3,14l0.4,0.2l0.5,0.3c0.7,0.4,1.8,0.4,2.5,0L42,25.3c0.6-0.4,0.6-0.9,0-1.2
		c-0.6-0.4-1.5-0.3-2.1,0l-13.1,7.6l-24.3-14c-0.6-0.3-1.5-0.4-2.1-0.1C-0.2,18-0.2,18.6,0.5,18.9"/>
	<path class="st0" d="M0.8,23.4l24.3,14l0.4,0.2l0.5,0.3c0.7,0.4,1.8,0.4,2.5,0l13.9-8.1c0.6-0.4,0.6-0.9,0-1.2
		c-0.6-0.4-1.5-0.3-2.1,0l-13.1,7.6l-24.3-14c-0.6-0.3-1.5-0.4-2.1-0.1C0.2,22.5,0.2,23,0.8,23.4"/>
	<path class="st0" d="M0.7,27.6l24.3,14l0.4,0.2l0.5,0.3c0.7,0.4,1.8,0.4,2.5,0L42.2,34c0.6-0.4,0.6-0.9,0-1.2
		c-0.6-0.4-1.5-0.3-2.1,0l-13.1,7.6l-24.3-14c-0.6-0.3-1.5-0.4-2.1-0.1C0.1,26.7,0.1,27.2,0.7,27.6"/>
</g>
</svg>
