<?xml version="1.0" encoding="utf-8"?>
<!-- Generator: Adobe Illustrator 18.0.0, SVG Export Plug-In . SVG Version: 6.00 Build 0)  -->
<!DOCTYPE svg PUBLIC "-//W3C//DTD SVG 1.1//EN" "http://www.w3.org/Graphics/SVG/1.1/DTD/svg11.dtd">
<svg version="1.1" id="ch1" xmlns="http://www.w3.org/2000/svg" xmlns:xlink="http://www.w3.org/1999/xlink" x="0px" y="0px"
	 width="59.2px" height="36.5px" viewBox="0 0 59.2 36.5" style="enable-background:new 0 0 59.2 36.5;" xml:space="preserve">
<style type="text/css">
	.st0{fill-rule:evenodd;clip-rule:evenodd;fill:#FF6E5F;}
</style>
<g id="Acceptance">
	<g id="Layer_5">
		<path class="st0" d="M41.6,11.4c0,0-5.1-2.1-7.5-2.6c-1.8-0.4-2-0.2-3.5,0.6c-1.3,0.7-3.4,1.5-4.5,2.5c-0.7,0.7-1.6,7.2-1.6,7.3
			c-0.1,1.8,2.2,1.8,3.4,0.4c0.8-0.9,1.4-2.3,1.8-3.2C30.1,15.7,30,16,30,16l1.4-0.3c0.3-0.1,0.6,0,0.8,0.2c1.4,1.3,3,2.8,4.7,4.4
			c2.9,2.8,5.8,5.4,7,6.5c0.3,0.3,0.5,0.5,0.6,0.8c0.1,0.3,0.1,0.6,0,1c0,0,0,0,0,0c-0.6,0.9-1.1,0.9-1.9,0.5l-5.1-4.4
			c-0.3-0.2-0.6-0.2-0.8,0.1c-0.2,0.3-0.2,0.6,0.1,0.8l5.3,4.5c0.4,0.4,0.4,1.1-0.1,1.4c-0.4,0.2-0.7,0.5-1.1,0.7
			c-0.3,0.2-0.7,0.2-1-0.1l-6.3-5.3c-0.3-0.2-0.6-0.2-0.8,0.1c-0.2,0.3-0.2,0.6,0.1,0.8l5.2,4.4c0.5,0.5,0.3,1.3-0.4,1.5
			c-0.4,0.1-0.9,0.2-1.3,0.3c-0.3,0.1-0.5,0-0.7-0.2l-4.7-4.2c-0.3-0.2-0.6-0.2-0.9,0.1c-0.2,0.3-0.2,0.6,0.1,0.9l3,2.6
			c0.6,0.5,0.3,1.4-0.4,1.5c0,0,0,0,0,0c-0.5,0.1-0.8,0.5-0.7,1c0,0.1,0,0.2,0,0.3c0,0.1,0,0.2,0,0.3c1-0.1,3-0.4,4.7-0.7
			c1.3-0.3,2.4-0.6,3.1-0.9c1.4-0.7,3.9-2.1,5.3-3.8c0.9-1.1,1.3-2.3,0.8-3.6c-0.2-0.4,0-0.9,0.4-1.1l2-1.1c0.3-0.2,0.5-0.5,0.4-0.9
			C47.8,18.2,43.6,12,41.6,11.4L41.6,11.4z M21.2,26.4c1.4,0.2,3.1,0.8,4.6,1.9c3,2.2,4.2,4.4,4.7,5.6c0.3,0.6,0.5,1.2,0.5,1.8
			c0,0.3,0.1,0.4-0.2,0.5c-3.2,1.4-10-2.9-12.3-6.6c-0.4-0.7-1.3-2.4-0.5-3.1C18.8,26,20.9,26.4,21.2,26.4L21.2,26.4z M43.3,10.3
			c2.8,1.9,10.6,14.7,5.6,17.1c-0.9,2.1,9.7-2.2,10.3-2.4V0L43.3,10.3L43.3,10.3z"/>
	</g>
	<g id="Layer_5_copy">
		<path class="st0" d="M15.2,9.7C12.3,13,8,25.3,13.1,28c1.1,2.1-9.9-2.2-12.6-3.3C0.2,24.6,0,24.3,0,23.9v-22
			c0-0.7,0.7-1.1,1.3-0.7L15.2,9.7L15.2,9.7z M12.4,23.6c-0.3-0.2-0.4-0.5-0.4-0.8c0.3-4.5,1.4-8.2,3.8-12.1
			c0.2-0.3,0.5-0.4,0.8-0.4l10.1,0.1c0.1,0,0.3,0,0.4,0c-0.9,0.5-1.7,0.9-1.9,1.1c-0.1,0.1-0.1,0.2-0.2,0.4c-2.6,0-5.1,0-7.7,0
			c-0.3,0-0.6,0.2-0.8,0.4c-1.7,3-2.8,6.2-3.1,9.7c0,0.3,0.1,0.6,0.4,0.8l4.5,2.8c0.2,0.1,0.2,0.2,0.4,0.3c-0.6,0-1.2,0.2-1.4,0.9
			L12.4,23.6z"/>
	</g>
</g>
</svg>
