<?xml version="1.0" encoding="utf-8"?>
<!-- Generator: Adobe Illustrator 18.0.0, SVG Export Plug-In . SVG Version: 6.00 Build 0)  -->
<!DOCTYPE svg PUBLIC "-//W3C//DTD SVG 1.1//EN" "http://www.w3.org/Graphics/SVG/1.1/DTD/svg11.dtd">
<svg version="1.1" id="Layer_1" xmlns="http://www.w3.org/2000/svg" xmlns:xlink="http://www.w3.org/1999/xlink" x="0px" y="0px"
	 width="162px" height="127px" viewBox="0 0 162 127" style="enable-background:new 0 0 162 127;" xml:space="preserve">
<style type="text/css">
	.st0{fill:#BD3427;}
	.st1{fill:#8B6E4A;}
	.st2{fill:#414141;}
</style>
<g>
	<g>
		<path class="st0" d="M93.9,49.4C93.9,49.4,93.8,49.3,93.9,49.4l-0.1-0.1L79.5,22.5l-3.9-7.3c-0.8-1.6-1.6-2.6-2.6-3.2
			c-0.6-0.4-1.3-0.5-1.9-0.6c-2.2-0.2-4.4,0.9-5.5,3c0,0,0,0.1-0.1,0.1l0,0L62,21.1l6.2,11.6l2.2-4.2l7.3,13.6l6.5,12.2l0,0
			c0,0,0,0.1,0,0.1c1.5,2.7,4.8,3.8,7.5,2.4C94.4,55.5,95.3,52.1,93.9,49.4z"/>
		<path class="st0" d="M58.4,54.2C58.4,54.2,58.3,54.2,58.4,54.2l-0.1-0.1L29.6,0.4H17.4l31.2,58.9l0,0c0,0,0,0.1,0,0.1
			c1.5,2.7,4.8,3.8,7.5,2.4C58.8,60.3,59.8,57,58.4,54.2z"/>
		<path class="st0" d="M132.7,0.4l-24.1,45.1L92.3,15.1l0,0c-1.4-2.6-4.5-3.8-7.2-2.6c-2.2,1-3.4,3.3-3.1,5.6l21.8,41l0,0
			c0,0.1,0.1,0.2,0.1,0.2c1.4,2.7,4.8,3.8,7.4,2.4c1.3-0.7,2.1-2.3,2.6-3.2l30.8-58.1H132.7z"/>
		<polygon class="st1" points="116.3,0.1 102.8,25.4 108.9,36.9 128.5,0.1 		"/>
		<path class="st1" d="M66.9,38.9L46.1,0.1H34L62,53l0,0c0,0,0,0.1,0,0.1c1.5,2.7,4.8,3.8,7.5,2.4c1.3-0.7,2.4-2.7,3.1-4.1
			c0.2-0.3,1.1-2.2,2.6-5l-6.1-11.6L66.9,38.9z"/>
	</g>
	<g>
		<path class="st2" d="M11.3,111.9h5.5c0.3-0.3,0.5-0.6,0.7-0.8c0.2-0.2,0.4-0.3,0.6-0.3c0.3,0,0.8,0.3,1.5,0.8
			c0.8,0.5,1.2,0.9,1.2,1.1c0,0.2-0.1,0.3-0.4,0.5c-0.3,0.2-0.5,0.4-0.5,0.5v2.4c0,0.2-0.2,0.4-0.7,0.5c0.5,0.3,0.9,0.6,1.4,0.9
			c0.5,0.4,0.8,0.6,0.8,0.8c0,0.2-0.1,0.3-0.3,0.3l-1-0.1c-0.5,0.3-1.2,0.5-2,0.8c0.1,0,0.2,0.1,0.3,0.1c1,0.5,1.8,0.9,2.3,1.4
			c0.4,0.4,0.6,0.9,0.6,1.3c0,0.3-0.1,0.6-0.3,0.8c-0.2,0.3-0.4,0.4-0.7,0.4c-0.4,0-1.1-0.6-2.2-1.8c-1.1-1.1-2.5-2.1-4.2-3l0.2-0.4
			c1.3,0.2,2.3,0.5,3.2,0.8c0.2-0.2,0.4-0.5,0.7-0.8c0.4-0.5,0.7-1,0.9-1.5c-0.3,0-0.6,0-0.7,0c-0.4,0-0.7-0.2-0.7-0.6v-0.5h-2.1
			c-0.9,1-1.8,1.8-2.5,2.2v2.7c0.9-0.1,1.8-0.3,2.6-0.6l0.2,0.4c-1.7,1.3-3.5,2.2-5.3,2.8c-0.2,0-0.3,0.1-0.3,0.2
			c0,0.1-0.1,0.2-0.1,0.3c0,0.1,0,0.1,0,0.1c1.3,0.1,3.2,0.1,5.5,0.1c2.2,0,4.6-0.1,7.2-0.5l0.1,0.5c-0.6,0.1-1.1,0.7-1.5,1.7
			c-0.1,0.4-0.2,0.6-0.4,0.6h-6.2c-1.4,0-3.2-0.1-5.4-0.3c-2.1-0.4-3.7-1.4-4.6-2.9c-0.1,0-0.1,0.1-0.2,0.2
			c-0.5,0.9-1.2,1.7-1.9,2.5c0,0.6-0.1,0.9-0.4,0.9c-0.1,0-0.3-0.2-0.5-0.5c-0.4-0.8-0.9-1.7-1.3-2.8c1.1-0.2,1.9-0.3,2.5-0.5v-6.1
			c-1,0-1.7,0.1-2.2,0.2l-0.4-1.1c0.6,0.2,1.3,0.3,2.1,0.3c0.3-0.3,0.5-0.5,0.8-0.8c0.3-0.4,0.6-0.6,0.8-0.6c0.2,0,0.7,0.3,1.3,0.8
			c0.7,0.6,1,0.9,1,1.1c0,0.2-0.1,0.4-0.4,0.6c-0.3,0.2-0.4,0.5-0.4,0.7v4.2c0.7,0.8,1.6,1.3,2.7,1.4c0.3,0,0.8,0.1,1.3,0.1
			c-0.2-0.3-0.4-0.7-0.6-1.2c-0.1-0.3-0.3-0.7-0.5-1.3c0.8-0.1,1.6-0.2,2.4-0.3v-1.9c-0.2,0.1-0.3,0.2-0.5,0.2c-1,0.4-2.2,0.7-3.4,1
			L6.3,120c1.2-0.5,2.3-1.1,3.4-1.9c0.9-0.7,1.8-1.5,2.4-2.4h-1v0.4c0,0.3-0.4,0.5-1.2,0.7c-0.3,0-0.6,0.1-0.7,0.1
			c-0.5,0-0.8-0.2-0.8-0.6c0-0.4,0.1-0.9,0.1-1.5v-1.8c0-0.5-0.1-1.2-0.2-2C9.3,111.1,10.3,111.5,11.3,111.9z M4.2,110.9
			c0.6,0.4,0.9,0.8,0.9,1.2c0,0.4-0.2,0.9-0.6,1.3c-0.3,0.3-0.6,0.4-1,0.4c-0.4,0-0.7-0.3-1-0.9c-0.4-0.9-1-1.8-1.9-2.6l0.2-0.4
			C2.4,110.2,3.5,110.5,4.2,110.9z M5,106.6c0.5,0.3,0.8,0.7,0.8,1.1c0,0.5-0.2,0.9-0.6,1.3c-0.3,0.3-0.6,0.4-1,0.4
			c-0.4,0-0.7-0.3-0.9-0.9c-0.3-0.8-0.9-1.7-1.8-2.5l0.2-0.4C3.3,105.9,4.4,106.2,5,106.6z M10.9,107.1h1.7v-0.4
			c0-0.7-0.1-1.4-0.2-2.1c1,0.1,2.1,0.2,3.1,0.4c0.6,0,0.9,0.2,0.9,0.5c0,0.1-0.2,0.3-0.5,0.4c-0.4,0.2-0.6,0.4-0.6,0.7v0.5h1.4
			c0,0,0.3-0.3,0.7-0.8c0.5-0.6,0.8-0.9,0.9-0.9c0.2,0,0.6,0.3,1.2,0.9c0.5,0.6,0.8,0.9,0.8,1.1c0,0.2-0.1,0.4-0.4,0.4h-4.6v2.1h2.9
			c0,0,0.3-0.3,0.7-0.8c0.5-0.6,0.8-1,0.9-1c0.2,0,0.7,0.3,1.2,0.9c0.6,0.6,0.8,1,0.8,1.1c0,0.3-0.1,0.4-0.4,0.4H10.3
			c-1.4,0-2.4,0-2.9,0.1L7,109.7c0.8,0.1,1.8,0.2,3.3,0.2h2.3v-2.1h-1.7c-1.4,0-2.4,0.1-2.9,0.1l-0.4-0.9
			C8.3,107.1,9.4,107.1,10.9,107.1z M17.3,115v-2.4h-6.2v2.4H17.3z"/>
		<path class="st2" d="M34.6,105.2c0.8,0.2,1.2,0.4,1.2,0.6c0,0.2-0.2,0.3-0.7,0.4c-0.4,0.1-0.6,0.1-0.7,0.2
			c1.4,0.4,2.4,0.8,3.1,1.3c0.7,0.5,1.1,1.2,1.1,1.9c0,0.3-0.1,0.6-0.4,0.8c-0.2,0.2-0.4,0.3-0.7,0.3c-0.6,0-1.1-0.4-1.6-1.1
			c-0.4-0.8-1.1-1.6-2-2.4c-0.6,1-1.3,1.9-2,2.5c-0.5,0.5-1,1-1.6,1.5c0.7,0.1,1.6,0.1,2.7,0.1h1c0,0,0.2-0.2,0.6-0.7
			c0.4-0.5,0.7-0.8,0.8-0.8c0.2,0,0.6,0.3,1.1,0.8c0.5,0.5,0.7,0.8,0.7,0.9c0,0.2-0.1,0.4-0.3,0.4h-2.6v3.2h0.7c0,0,0.2-0.2,0.6-0.6
			c0.4-0.5,0.6-0.8,0.7-0.8c0.2,0,0.6,0.3,1.1,0.8c0.5,0.5,0.8,0.8,0.8,0.9c0,0.2-0.1,0.4-0.3,0.4h-3.5v6.2c1.3-0.2,2.5-0.5,3.6-0.8
			l0.2,0.4c-2.3,1.7-4.7,3-7.3,3.7c-0.3,0-0.4,0.1-0.4,0.3c0,0.1-0.1,0.2-0.1,0.3c0,0.2-0.1,0.3-0.3,0.3c-0.4,0-0.8-0.6-1.2-1.8
			c-0.1-0.3-0.4-0.8-0.7-1.6c1.3-0.1,2.5-0.2,3.7-0.4v-6.6h-0.3c-1.4,0-2.4,0-2.9,0.1l-0.4-0.9c0.8,0.1,1.9,0.2,3.3,0.2h0.3v-3.2
			c-0.8,0-1.4,0-1.8,0.1l-0.2-0.5c-0.5,0.4-1.1,0.8-1.7,1.2l-0.2-0.4c0.7-0.8,1.6-1.9,2.5-3.3c0.7-1.2,1.3-2.6,1.9-4.4
			C33.2,104.8,34,105,34.6,105.2z M31,118.5c0.4,0.6,0.6,1.2,0.6,1.7c0,0.6-0.1,1-0.3,1.2c-0.3,0.3-0.7,0.5-1,0.5
			c-0.2,0-0.4-0.1-0.6-0.4c-0.1-0.2-0.2-0.7-0.2-1.5c0-0.9-0.1-2-0.3-3.2l0.3-0.1C30,117.3,30.6,117.9,31,118.5z M37.6,117.2
			c0.6,0.2,0.9,0.5,0.9,0.8c0,0.1-0.2,0.2-0.5,0.2c-0.3,0-0.5,0.1-0.6,0.1c-0.7,1.1-1.5,2.1-2.5,3l-0.3-0.3c0.3-1.4,0.6-2.9,0.8-4.6
			C36.2,116.7,36.9,116.9,37.6,117.2z M41.6,106.4h3.6c0.3-0.4,0.7-0.8,1-1.1c0.2-0.3,0.5-0.4,0.7-0.4c0.2,0,0.7,0.2,1.4,0.7
			c0.8,0.6,1.3,1,1.3,1.2c0,0.2-0.2,0.5-0.5,0.7c-0.3,0.2-0.4,0.5-0.4,0.7v4.3c0,0.8,0,1.8,0.1,3.1c0,0.3-0.3,0.5-1,0.6
			c0.6,0.4,1.2,0.7,1.8,1.1c0.6,0.5,0.9,0.8,0.9,1c0,0.3-0.1,0.4-0.4,0.4l-1.3-0.2c-0.7,0.5-1.6,1.1-2.8,1.6
			c0.1,0.2,0.2,0.3,0.3,0.5c0.5,0.7,1,1.3,1.8,1.7c0.7,0.5,1.5,0.9,2.6,1.3l-0.1,0.6c-0.7,0.1-1.3,0.6-1.7,1.4
			c-0.2,0.6-0.4,0.9-0.6,0.9c-0.1,0-0.5-0.3-1-0.8c-0.6-0.6-1.1-1.3-1.7-2.4c-0.1-0.2-0.2-0.5-0.3-0.7c-1.8,1.3-3.7,2.3-5.6,3
			c-0.2,0-0.4,0.1-0.4,0.3c0,0.1-0.1,0.2-0.1,0.4c-0.1,0.2-0.2,0.3-0.3,0.3c-0.4,0-0.8-0.6-1.2-1.8c-0.1-0.3-0.4-0.9-0.7-1.6
			c0.7,0,1.3-0.1,2-0.2v-12.9c0-2-0.1-3.5-0.3-4.6C39.4,105.5,40.5,105.9,41.6,106.4z M46,110.4V107h-4.5v3.4H46z M46,114.6v-3.5
			h-4.5v3.5H46z M44.1,119.7c-0.3-1.1-0.6-2.6-0.8-4.5h-1.8v7.3c1.1-0.2,2.2-0.4,3.3-0.7C44.5,121.1,44.3,120.4,44.1,119.7z
			 M44.7,117.7c0.2,0.7,0.5,1.3,0.8,1.9c0.2-0.3,0.4-0.7,0.7-1.1c0.4-0.7,0.7-1.3,1-2.1c-0.2,0-0.4,0-0.6,0c-0.4,0-0.7-0.2-0.7-0.7
			v-0.4H44C44.2,115.9,44.4,116.7,44.7,117.7z"/>
		<path class="st2" d="M60.7,121.6c0.8,0.2,1.2,0.4,1.2,0.6c0,0.2-0.2,0.3-0.7,0.3c-0.4,0-0.6,0.1-0.6,0.2c-0.5,0.8-1,1.5-1.6,2
			c-0.6,0.6-1.5,1.2-2.5,1.8l-0.2-0.3c0.4-0.6,0.9-1.3,1.3-2.3c0.4-0.8,0.7-1.8,1-3C59.4,121.2,60.1,121.4,60.7,121.6z M60.5,106.5
			H63c0.3-0.2,0.5-0.5,0.8-0.7c0.3-0.3,0.6-0.5,0.8-0.5c0.3,0,0.8,0.2,1.4,0.7c0.8,0.6,1.2,1,1.2,1.2c0,0.2-0.2,0.5-0.6,0.7
			c-0.3,0.3-0.5,0.6-0.5,0.8v6.5l0.2,4.8c0,0.3-0.5,0.6-1.3,0.7c-0.4,0.1-0.7,0.1-0.8,0.1c-0.5,0-0.7-0.2-0.7-0.7v-0.6h-3.3v0.6
			c0,0.3-0.4,0.6-1.2,0.7c-0.3,0-0.6,0.1-0.8,0.1c-0.6,0-0.9-0.2-0.9-0.8c0.1-1.7,0.2-3.2,0.2-4.5v-5.9c0-1.1-0.1-2.5-0.2-4.1
			C58.4,105.6,59.5,106,60.5,106.5z M63.4,110.4v-3.3h-3.3v3.3H63.4z M63.4,114.6v-3.6h-3.3v3.6H63.4z M63.4,118.7v-3.4h-3.3v3.4
			H63.4z M66.1,122.7c0.6,0.4,0.9,0.8,0.9,1.2c0,0.6-0.2,1.1-0.5,1.5c-0.3,0.4-0.7,0.6-1.1,0.6c-0.2,0-0.4-0.1-0.6-0.2
			c-0.1-0.1-0.3-0.6-0.5-1.3c-0.2-0.9-0.8-1.9-1.7-3.1l0.4-0.3C64.5,121.7,65.5,122.2,66.1,122.7z M69.6,110.7h2.5v-2.1
			c0-1.5-0.1-2.8-0.2-3.9c0.7,0.1,1.4,0.2,2,0.3c1.3,0.2,2,0.4,2,0.6c0,0.3-0.2,0.5-0.7,0.7c-0.3,0.1-0.5,0.3-0.5,0.6v3.6
			c0.1-0.2,0.3-0.4,0.5-0.6c0.5-0.7,0.9-1,1-1c0.3,0,0.7,0.3,1.3,1c0.6,0.6,0.9,1,0.9,1.2c0,0.3-0.1,0.4-0.4,0.4h-3.3v11.7
			c0,1.4-0.4,2.4-1.2,2.8c-0.9,0.5-1.6,0.7-2.1,0.7c-0.2,0-0.4-0.3-0.5-0.8c-0.2-0.9-1.2-1.6-3-2.1l0.1-0.5c1,0.1,1.9,0.2,2.7,0.2
			c0.5,0,0.8-0.1,1.1-0.2c0.2-0.1,0.3-0.3,0.3-0.7v-6.6c-0.2,0.3-0.3,0.6-0.4,0.8c-0.7,1.2-1.5,2.2-2.5,3c-0.9,0.9-1.9,1.6-3,2.2
			l-0.2-0.4c1-1.1,2-2.5,2.9-4.2c0.9-1.7,1.7-3.8,2.3-6h-1.6c-1.4,0-2.4,0-2.9,0.1l-0.4-0.9C67.1,110.6,68.2,110.7,69.6,110.7z"/>
		<path class="st2" d="M96.6,105.2c0.6,0,0.9,0.2,0.9,0.5c0,0.1-0.2,0.3-0.5,0.4c-0.4,0.2-0.6,0.4-0.6,0.7v0.9h5.7
			c0.3-0.3,0.6-0.5,0.8-0.7c0.3-0.3,0.6-0.5,0.7-0.5c0.2,0,0.8,0.4,1.6,1c0.8,0.6,1.1,1.1,1.1,1.3c0,0.2-0.2,0.3-0.6,0.4
			c-0.4,0-0.7,0-0.8,0.1c-0.9,0.6-1.9,1.2-3.1,1.8l-0.4-0.2H91.2c-1.4,0-2.4,0-2.9,0.1l-0.4-0.9c0.8,0.1,1.8,0.2,3.3,0.2h7
			c0,0,0.3-0.3,0.7-0.8c0.5-0.6,0.8-0.9,0.9-0.9c0.2,0,0.6,0.3,1.2,0.9c0.4,0.4,0.6,0.7,0.7,0.8c0.3-0.6,0.5-1.3,0.7-1.9H87.3
			c0,0.6-0.1,1.1-0.1,1.5c-0.1,0.7-0.4,1.2-0.8,1.5c-0.2,0.2-0.4,0.2-0.7,0.2c-0.5,0-0.9-0.1-1.3-0.4c-0.3-0.2-0.5-0.6-0.5-1.1
			c0-0.2,0.2-0.5,0.8-0.9c0.5-0.3,1-0.7,1.3-1.2c0.3-0.4,0.6-1,0.8-1.9l0.5,0.1c0,0.6,0,1.1,0,1.5h6.4v-0.8c0-0.7-0.1-1.3-0.2-2.1
			C94.6,104.9,95.6,105,96.6,105.2z M89.4,118.3h11.1c0.4-0.4,0.7-0.7,1-1c0.2-0.2,0.5-0.4,0.7-0.4c0.2,0,0.7,0.2,1.5,0.7
			c0.9,0.6,1.3,1,1.3,1.2c0,0.2-0.2,0.5-0.5,0.6c-0.2,0.2-0.3,0.4-0.3,0.7v2.7c0,0.7,0,1.7,0.1,3c0,0.3-0.4,0.5-1.2,0.7
			c-0.4,0-0.6,0.1-0.8,0.1c-0.4,0-0.7-0.3-0.7-0.8v-0.5H88.9v0.4c0,0.3-0.4,0.6-1.2,0.7c-0.3,0-0.6,0.1-0.7,0.1
			c-0.5,0-0.8-0.3-0.8-0.8c0-0.8,0.1-1.6,0.1-2.4v-2.8c0-1.2-0.1-2.3-0.2-3.4C87.2,117.4,88.3,117.8,89.4,118.3z M91.7,112.7h6.9
			c0.3-0.4,0.6-0.7,0.8-1c0.2-0.2,0.4-0.4,0.7-0.4c0.3,0,0.8,0.3,1.5,0.8c0.8,0.6,1.2,0.9,1.2,1.2c0,0.2-0.2,0.4-0.5,0.5
			c-0.3,0.2-0.5,0.3-0.5,0.5v2.4c0,0.3-0.4,0.5-1.2,0.6c-0.4,0-0.6,0.1-0.8,0.1c-0.4,0-0.7-0.2-0.7-0.7v-0.4h-7.6v0.2
			c0,0.3-0.4,0.5-1.2,0.7c-0.3,0.1-0.6,0.1-0.7,0.1c-0.5,0-0.8-0.2-0.8-0.7c0-0.4,0.1-0.9,0.1-1.5v-1.6c0-0.6-0.1-1.2-0.2-2
			C89.6,111.9,90.6,112.2,91.7,112.7z M93.9,121.3V119h-5v2.4H93.9z M93.9,124.7V122h-5v2.7H93.9z M99,115.8v-2.4h-7.6v2.4H99z
			 M96.4,121.3h5.1V119h-5.1V121.3z M101.6,124.7V122h-5.1v2.7H101.6z"/>
		<path class="st2" d="M117.3,105.3c0.7,0.2,1,0.4,1,0.7c0,0.2-0.2,0.4-0.6,0.4c-0.4,0-0.6,0.1-0.7,0.2c-0.1,0.2-0.2,0.5-0.3,0.7
			h2.9c0,0,0.2-0.2,0.7-0.7c0.6-0.7,0.9-1,1.1-1c0.2,0,0.7,0.4,1.5,1.2c0.5,0.5,0.8,0.8,0.8,0.9c0,0.2-0.2,0.4-0.5,0.4h-4.3
			c0.4,0.2,0.7,0.4,0.9,0.5c0.5,0.4,0.7,0.7,0.7,1c0,0.6-0.1,1-0.4,1.3c-0.3,0.4-0.7,0.5-1.1,0.5c-0.2,0-0.4-0.1-0.5-0.2
			c-0.1,0-0.2-0.4-0.3-1c-0.1-0.7-0.3-1.4-0.7-2.2h-1.1c-0.4,0.7-0.8,1.3-1.3,1.8c-0.7,0.9-1.7,1.7-2.8,2.6l-0.3-0.3
			c0.8-1.2,1.5-2.4,1.9-3.4c0.4-1.1,0.8-2.4,1.1-4C115.8,104.9,116.6,105.1,117.3,105.3z M127,105.3c0.7,0.2,1,0.4,1,0.7
			c0,0.2-0.2,0.4-0.6,0.4c-0.4,0-0.6,0.1-0.7,0.2c-0.1,0.2-0.2,0.4-0.3,0.6h3.5c0,0,0.2-0.2,0.7-0.7c0.6-0.7,1-1,1.2-1
			c0.2,0,0.7,0.4,1.6,1.2c0.5,0.5,0.8,0.8,0.8,0.9c0,0.2-0.2,0.4-0.5,0.4h-4.9c0.5,0.2,0.8,0.4,1.1,0.5c0.6,0.4,0.8,0.7,0.8,1
			c0,0.5-0.1,1-0.4,1.3c-0.3,0.3-0.7,0.5-1.1,0.5c-0.3,0-0.5,0-0.7-0.2c-0.1-0.1-0.3-0.4-0.4-1c-0.1-0.7-0.4-1.4-0.9-2.1H126
			c-0.2,0.3-0.5,0.5-0.7,0.7c-0.4,0.3-0.8,0.7-1.3,1c0.2,0,0.4,0,0.6,0.1c0.6,0,0.9,0.2,0.9,0.5c0,0.1-0.2,0.2-0.5,0.4
			c-0.4,0.2-0.6,0.4-0.6,0.6v0.7h5.9c0.3-0.3,0.6-0.5,0.8-0.6c0.3-0.3,0.6-0.5,0.7-0.5c0.2,0,0.7,0.3,1.5,1c0.7,0.6,1.1,1,1.1,1.3
			c0,0.2-0.2,0.3-0.6,0.4c-0.4,0-0.7,0-0.8,0.1c-0.8,0.4-1.7,0.8-2.7,1.1c0.2,0.2,0.4,0.4,0.4,0.6c0,0.2-0.1,0.4-0.4,0.5
			c-0.3,0.2-0.4,0.3-0.4,0.5v3c0,0.2-0.2,0.3-0.6,0.4c0.3,0.1,0.6,0.4,1,0.6c0.8,0.5,1.2,0.9,1.2,1.1c0,0.2-0.1,0.4-0.4,0.5
			c-0.2,0.2-0.4,0.3-0.4,0.5v3.4c0,0.3-0.4,0.5-1.2,0.6c-0.4,0-0.6,0.1-0.8,0.1c-0.4,0-0.7-0.2-0.7-0.7v-0.7h-9.3v0.7
			c0,0.3-0.4,0.5-1.2,0.7c-0.4,0-0.6,0.1-0.8,0.1c-0.5,0-0.8-0.3-0.8-0.8c0-0.8,0.1-1.7,0.1-2.5v-6.4c0-0.7,0-1.4-0.1-2.1
			c-0.1,0.3-0.3,0.5-0.5,0.6c-0.4,0.4-0.9,0.5-1.5,0.5c-0.3,0-0.6-0.1-0.8-0.3c-0.2-0.2-0.3-0.5-0.3-0.7c0-0.1,0.3-0.6,1-1.4
			c0.6-0.9,0.9-2,1-3.3l0.4-0.1c0.3,0.7,0.5,1.3,0.7,1.8h5.6v-0.6c0-0.6-0.1-1.3-0.2-2c0.5,0,1,0.1,1.6,0.2c0.4-0.7,0.7-1.4,1-2
			c0.3-0.8,0.5-1.7,0.7-2.8C125.5,104.9,126.3,105.1,127,105.3z M126.8,114.6c0.3-0.3,0.5-0.7,0.7-0.9c0.2-0.2,0.4-0.3,0.6-0.3
			c0.3,0,0.8,0.3,1.5,0.7c0.1,0,0.1,0.1,0.2,0.1c0.3-0.5,0.6-1.1,0.8-1.6h-14.3c0,0.2,0,0.3,0,0.5c0,0.2,0,0.4,0,0.5
			c1,0.3,1.9,0.6,2.9,1H126.8z M127.2,118.1v-2.9h-8.4v2.9H127.2z M127.5,120.8c0.3-0.4,0.5-0.7,0.7-0.9l0,0c-0.2,0-0.3,0-0.4,0
			c-0.5,0-0.7-0.2-0.7-0.7v-0.5h-8.4v2.1H127.5z M128.1,124.5v-3h-9.3v3H128.1z"/>
		<path class="st2" d="M143.1,107.1h2.2c0,0,0.2-0.2,0.6-0.7c0.4-0.5,0.7-0.8,0.8-0.8c0.2,0,0.6,0.3,1.1,0.8c0.5,0.5,0.8,0.9,0.8,1
			c0,0.2-0.1,0.4-0.4,0.4h-2.6v5.6c0,0,0.2-0.2,0.6-0.6c0.4-0.5,0.7-0.7,0.8-0.7c0.2,0,0.5,0.2,1,0.7c0.5,0.5,0.7,0.8,0.7,0.9
			c0,0.2-0.1,0.4-0.3,0.4h-2.7v5.4c1.2-0.3,2.3-0.6,3.4-1l0.1,0.3c-2.2,1.9-4.5,3.2-6.9,4.1c-0.3,0-0.4,0.1-0.4,0.3
			c0,0.1-0.1,0.2-0.1,0.3c0,0.2-0.1,0.3-0.2,0.3c-0.3,0-0.7-0.6-1.2-1.7c-0.1-0.3-0.3-0.8-0.6-1.5c1.1-0.1,2.2-0.3,3.3-0.5v-6
			c-1.2,0-2,0-2.6,0.1l-0.4-0.9c0.7,0.1,1.7,0.2,2.9,0.2v-5.6c-1.3,0-2.3,0.1-2.8,0.1l-0.4-0.9C140.6,107.1,141.7,107.1,143.1,107.1
			z M151.7,106.8h5.3c0.3-0.4,0.7-0.7,1-0.9c0.2-0.2,0.4-0.4,0.6-0.4c0.2,0,0.6,0.2,1.3,0.6c0.8,0.6,1.2,1,1.2,1.2
			c0,0.2-0.2,0.4-0.5,0.7c-0.2,0.2-0.4,0.4-0.4,0.7v5.2c0,0.7,0,1.8,0.1,3c0,0.3-0.4,0.6-1.2,0.7c-0.4,0.1-0.6,0.1-0.8,0.1
			c-0.4,0-0.7-0.2-0.7-0.8v-0.3h-2v3.5h1.5c0,0,0.3-0.3,0.8-0.9c0.5-0.7,0.9-1,1-1c0.3,0,0.7,0.3,1.3,1c0.6,0.6,0.9,1,0.9,1.2
			c0,0.3-0.1,0.4-0.4,0.4h-5.1v4.2h2.1c0-0.1,0.3-0.4,0.8-1c0.6-0.7,0.9-1.1,1-1.1c0.3,0,0.8,0.4,1.5,1.1c0.7,0.7,1,1.1,1,1.3
			c0,0.2-0.2,0.4-0.5,0.4H149c-1.4,0-2.4,0-2.9,0.1l-0.4-0.9c0.8,0.1,1.8,0.2,3.3,0.2h4.2v-4.2H152c-1.4,0-2.4,0-3,0.1l-0.4-0.9
			c0.8,0.1,1.9,0.2,3.3,0.2h1.2v-3.5h-1.8v0.5c0,0.3-0.4,0.6-1.1,0.7c-0.3,0-0.6,0-0.7,0c-0.5,0-0.8-0.2-0.8-0.7
			c0-0.7,0.1-1.5,0.1-2.3V109c0-1.1-0.1-2.2-0.2-3.2C149.7,106.1,150.7,106.4,151.7,106.8z M153.2,111.5v-4h-1.8v4H153.2z
			 M153.2,115.9v-3.7h-1.8v3.7H153.2z M155.8,111.5h2v-4h-2V111.5z M155.8,115.9h2v-3.7h-2V115.9z"/>
	</g>
	<g>
		<g>
			<path class="st1" d="M11.8,92.4V74.5H16v6.9h13v-6.9h4.2v17.9H29v-7.7H16v7.7H11.8z"/>
			<path class="st1" d="M40.6,92.4l10.1-17.9h4L65,92.4h-4.7l-2.1-3.9H46.9l-2.1,3.9H40.6z M48.6,85.3h7.8L52.6,78L48.6,85.3z"/>
			<path class="st1" d="M72.5,92.4V74.5h15.3c2.7,0,4,1.2,4,3.5v4c0,2.3-1.3,3.5-4,3.5H76.6v7H72.5z M85.9,77.6h-9.4v4.8h9.4
				c0.6,0,1.1-0.1,1.4-0.2c0.3-0.2,0.5-0.6,0.5-1.2V79c0-0.6-0.2-1-0.5-1.2C87,77.7,86.6,77.6,85.9,77.6z"/>
			<path class="st1" d="M100,92.4V74.5h15.3c2.7,0,4,1.2,4,3.5v4c0,2.3-1.3,3.5-4,3.5h-11.2v7H100z M113.4,77.6h-9.4v4.8h9.4
				c0.6,0,1.1-0.1,1.4-0.2c0.3-0.2,0.5-0.6,0.5-1.2V79c0-0.6-0.2-1-0.5-1.2C114.5,77.7,114.1,77.6,113.4,77.6z"/>
			<path class="st1" d="M132.4,92.4v-8l-9.3-9.9h5.5l6.1,6.9l6.2-6.9h4.9l-9.3,9.8v8.1H132.4z"/>
		</g>
		<polygon class="st1" points="158.3,66.7 153.8,66.7 153.9,62.2 150.4,62.2 150.4,66.7 145.9,66.7 145.9,70.1 150.4,70.1 
			150.3,74.6 153.8,74.7 153.8,70.1 158.3,70.1 		"/>
	</g>
</g>
</svg>
