<?xml version="1.0" encoding="utf-8"?>
<!-- Generator: Adobe Illustrator 18.0.0, SVG Export Plug-In . SVG Version: 6.00 Build 0)  -->
<!DOCTYPE svg PUBLIC "-//W3C//DTD SVG 1.1//EN" "http://www.w3.org/Graphics/SVG/1.1/DTD/svg11.dtd">
<svg version="1.1" id="ch5" xmlns="http://www.w3.org/2000/svg" xmlns:xlink="http://www.w3.org/1999/xlink" x="0px" y="0px"
	 width="13.6px" height="8.8px" viewBox="0 0 13.6 8.8" style="enable-background:new 0 0 13.6 8.8;" xml:space="preserve">
<style type="text/css">
	.st0{fill:#fff;}
</style>
<path class="st0" d="M2.6,3.4C2.5,3.2,2.6,3,2.7,2.9l0,0C2.8,2.8,3,2.8,3.2,3c0.1,0.1,0.1,0.3-0.1,0.5C3,3.5,3,3.5,2.9,3.5
	C2.8,3.5,2.7,3.5,2.6,3.4 M0.5,3.4c-0.1,0-0.2,0.1-0.2,0.2v0.9l0,0c0,1.3,1.6,2.5,3.9,2.8v1.1c0,0.1,0.1,0.2,0.2,0.2h1.5
	c0,0,0.1,0,0.1,0c0,0,0,0,0,0c0,0,0,0,0.1,0c0,0,0,0,0,0l0.6-0.8c0.4,0.1,0.8,0.1,1.2,0.1c0.6,0,1.2-0.1,1.7-0.3v0.8
	c0,0.1,0.1,0.2,0.2,0.2h1.9h0l0,0c0,0,0.1,0,0.1,0c0,0,0,0,0,0c0,0,0,0,0,0c0,0,0,0,0,0c0,0,0,0,0,0c0,0,0,0,0,0c0,0,0,0,0,0l0.6-3
	c0.5-0.5,0.7-1.2,0.7-1.8c0-0.7-0.3-1.4-0.9-1.9c0-0.2,0.2-0.3,0.4-0.4c0,0.1,0,0.2-0.1,0.2c-0.1,0-0.1,0.1-0.1,0.2
	c0,0.1,0.1,0.2,0.2,0.2c0.3,0,0.4-0.4,0.4-0.9c0-0.1-0.1-0.2-0.2-0.2c-0.5,0-0.8,0.2-1,0.5c-0.9-0.7-2.2-1.2-3.7-1.2
	c-1.5,0-3,0.5-3.9,1.2l-1.6-1c0,0,0,0,0,0c0,0,0,0,0,0c0,0,0,0,0,0c0,0,0,0,0,0c0,0,0,0-0.1,0c0,0,0,0,0,0c0,0,0,0,0,0c0,0,0,0,0,0
	c0,0,0,0,0,0c0,0,0,0,0,0c0,0,0,0,0,0c0,0,0,0,0,0c0,0,0,0,0,0c0,0,0,0,0,0c0,0,0,0,0,0c0,0,0,0,0,0l0.4,1.3
	C2.1,2.1,1.6,2.6,1.2,3.4H0.5"/>
</svg>
