<?xml version="1.0" encoding="utf-8"?>
<!-- Generator: Adobe Illustrator 21.0.0, SVG Export Plug-In . SVG Version: 6.00 Build 0)  -->
<svg version="1.1" id="圖層_1" xmlns="http://www.w3.org/2000/svg" xmlns:xlink="http://www.w3.org/1999/xlink" x="0px" y="0px"
	 viewBox="0 0 52 38" style="enable-background:new 0 0 52 38;" xml:space="preserve">
<style type="text/css">
	.st0{opacity:0.21;}
	.st1{fill:#A27052;}
</style>
<g class="st0">
	<path class="st1" d="M25.6,20.1h20c-0.4,0.3-0.9,0.7-1.3,1l-0.3,0.2c-1.9,1.7-3.4,3.1-4.7,4.6c-3.1,3.5-5.5,7-7.5,10.6L31.7,37
		l1.3,0.8l0.3-0.4c2.9-3.7,5.6-6.8,8.3-9.4c1.5-1.4,3-2.8,4.6-4.1l0.6-0.4c0.6-0.5,1.2-0.9,1.9-1.3c0.4-0.3,0.8-0.5,1.3-0.8l1-0.5
		c0.1,0,0.3-0.2,0.6-0.4c0.2-0.2,0.5-0.5,0.6-1.3c0-0.4-0.1-1-0.7-1.5c-0.2-0.1-0.3-0.2-0.4-0.3l-1-0.6c-0.4-0.2-0.8-0.5-1.3-0.8
		c-0.6-0.4-1.1-0.8-1.7-1.2c-0.3-0.2-0.5-0.4-0.8-0.6c-1.6-1.3-3.2-2.8-4.6-4.1c-2.7-2.7-5.4-5.8-8.3-9.4l-0.3-0.4L31.7,1l0.3,0.5
		c2,3.6,4.4,7.1,7.5,10.6c1.3,1.5,2.8,3,4.7,4.6c0.5,0.4,1,0.8,1.5,1.2h-20V20.1z"/>
	<rect x="9.7" y="17.9" class="st1" width="11.3" height="2.3"/>
	<rect x="-0.1" y="17.9" class="st1" width="5.6" height="2.3"/>
</g>
</svg>
