<?xml version="1.0" encoding="utf-8"?>
<!-- Generator: Adobe Illustrator 21.0.0, SVG Export Plug-In . SVG Version: 6.00 Build 0)  -->
<svg version="1.1" id="圖層_1" xmlns="http://www.w3.org/2000/svg" xmlns:xlink="http://www.w3.org/1999/xlink" x="0px" y="0px"
	 viewBox="0 0 52 38" style="enable-background:new 0 0 52 38;" xml:space="preserve">
<style type="text/css">
	.st0{opacity:0.21;}
	.st1{fill:#A27052;}
</style>
<g class="st0">
	<path class="st1" d="M26.3,17.9h-20c0.4-0.3,0.9-0.7,1.3-1l0.3-0.2c1.9-1.7,3.4-3.1,4.7-4.6c3.1-3.5,5.5-7,7.5-10.6L20.3,1L19,0.2
		l-0.3,0.4C15.7,4.3,13,7.4,10.4,10c-1.5,1.4-3,2.8-4.6,4.1l-0.6,0.4c-0.6,0.5-1.2,0.9-1.9,1.3c-0.4,0.3-0.8,0.5-1.3,0.8l-1,0.5
		c-0.1,0-0.3,0.2-0.6,0.4C0.4,17.8,0,18.2-0.1,19c0,0.4,0.1,1,0.7,1.5c0.2,0.1,0.3,0.2,0.4,0.3l1,0.6c0.4,0.2,0.8,0.5,1.3,0.8
		c0.6,0.4,1.1,0.8,1.7,1.2c0.3,0.2,0.5,0.4,0.8,0.6c1.6,1.3,3.2,2.8,4.6,4.1c2.7,2.7,5.4,5.8,8.3,9.4l0.3,0.4l1.3-0.8L20,36.5
		c-2-3.6-4.4-7.1-7.5-10.6c-1.3-1.5-2.8-3-4.7-4.6c-0.5-0.4-1-0.8-1.5-1.2h20V17.9z"/>
	<rect x="30.9" y="17.9" class="st1" width="11.3" height="2.3"/>
	<rect x="46.4" y="17.9" class="st1" width="5.6" height="2.3"/>
</g>
</svg>
